<?xml version="1.0" standalone="no"?>
<!DOCTYPE svg PUBLIC "-//W3C//DTD SVG 20010904//EN"
 "http://www.w3.org/TR/2001/REC-SVG-20010904/DTD/svg10.dtd">
<svg version="1.0" xmlns="http://www.w3.org/2000/svg"
 width="400.000000pt" height="400.000000pt" viewBox="0 0 400.000000 400.000000"
 preserveAspectRatio="xMidYMid meet">

<g transform="translate(0.000000,400.000000) scale(0.100000,-0.100000)"
fill="#000000" stroke="none">
<path d="M1906 3099 c-431 -46 -674 -424 -653 -1018 7 -216 42 -321 143 -430
98 -106 225 -154 462 -173 108 -9 176 -9 285 0 236 19 363 67 461 173 102 110
136 213 143 437 17 511 -161 863 -496 977 -63 21 -108 29 -226 39 -22 2 -76 0
-119 -5z"/>
<path d="M1760 1191 c-535 -108 -948 -539 -1054 -1100 -9 -46 -16 -85 -16 -87
0 -2 590 -4 1310 -4 721 0 1310 2 1310 4 0 27 -38 192 -61 263 -36 113 -68
186 -122 278 -199 342 -516 573 -890 646 -127 25 -354 25 -477 0z"/>
</g>
</svg>
