<svg id="visual" viewBox="0 0 960 540" width="960" height="540" xmlns="http://www.w3.org/2000/svg" xmlns:xlink="http://www.w3.org/1999/xlink" version="1.1"><path d="M0 319L22.8 309.7C45.7 300.3 91.3 281.7 137 291.5C182.7 301.3 228.3 339.7 274 360C319.7 380.3 365.3 382.7 411.2 384.2C457 385.7 503 386.3 548.8 370.2C594.7 354 640.3 321 686 311C731.7 301 777.3 314 823 310.2C868.7 306.3 914.3 285.7 937.2 275.3L960 265L960 541L937.2 541C914.3 541 868.7 541 823 541C777.3 541 731.7 541 686 541C640.3 541 594.7 541 548.8 541C503 541 457 541 411.2 541C365.3 541 319.7 541 274 541C228.3 541 182.7 541 137 541C91.3 541 45.7 541 22.8 541L0 541Z" fill="#00acee" stroke-linecap="round" stroke-linejoin="miter"></path></svg>