<svg id="visual" viewBox="0 0 960 540" width="960" height="540" xmlns="http://www.w3.org/2000/svg" xmlns:xlink="http://www.w3.org/1999/xlink" version="1.1"><path d="M0 263L80 263C160 263 320 263 480 263C640 263 800 263 880 263L960 263L960 0L880 0C800 0 640 0 480 0C320 0 160 0 80 0L0 0Z" fill="#535bf2"></path><path d="M0 242L80 242C160 242 320 242 480 242C640 242 800 242 880 242L960 242L960 0L880 0C800 0 640 0 480 0C320 0 160 0 80 0L0 0Z" fill="#4565f6"></path><path d="M0 221L80 221C160 221 320 221 480 221C640 221 800 221 880 221L960 221L960 0L880 0C800 0 640 0 480 0C320 0 160 0 80 0L0 0Z" fill="#376ff9"></path><path d="M0 201L80 201C160 201 320 201 480 201C640 201 800 201 880 201L960 201L960 0L880 0C800 0 640 0 480 0C320 0 160 0 80 0L0 0Z" fill="#2877fb"></path><path d="M0 180L80 180C160 180 320 180 480 180C640 180 800 180 880 180L960 180L960 0L880 0C800 0 640 0 480 0C320 0 160 0 80 0L0 0Z" fill="#1780fc"></path><path d="M0 160L80 160C160 160 320 160 480 160C640 160 800 160 880 160L960 160L960 0L880 0C800 0 640 0 480 0C320 0 160 0 80 0L0 0Z" fill="#0587fc"></path><path d="M0 139L80 139C160 139 320 139 480 139C640 139 800 139 880 139L960 139L960 0L880 0C800 0 640 0 480 0C320 0 160 0 80 0L0 0Z" fill="#008ffc"></path><path d="M0 119L80 119C160 119 320 119 480 119C640 119 800 119 880 119L960 119L960 0L880 0C800 0 640 0 480 0C320 0 160 0 80 0L0 0Z" fill="#0095fa"></path><path d="M0 98L80 98C160 98 320 98 480 98C640 98 800 98 880 98L960 98L960 0L880 0C800 0 640 0 480 0C320 0 160 0 80 0L0 0Z" fill="#009cf8"></path><path d="M0 78L80 78C160 78 320 78 480 78C640 78 800 78 880 78L960 78L960 0L880 0C800 0 640 0 480 0C320 0 160 0 80 0L0 0Z" fill="#00a1f5"></path><path d="M0 57L80 57C160 57 320 57 480 57C640 57 800 57 880 57L960 57L960 0L880 0C800 0 640 0 480 0C320 0 160 0 80 0L0 0Z" fill="#00a7f2"></path><path d="M0 36L80 36C160 36 320 36 480 36C640 36 800 36 880 36L960 36L960 0L880 0C800 0 640 0 480 0C320 0 160 0 80 0L0 0Z" fill="#00acee"></path></svg>