<?xml version="1.0" encoding="utf-8"?>
<!-- Generator: Adobe Illustrator 26.3.0, SVG Export Plug-In . SVG Version: 6.00 Build 0)  -->
<svg version="1.1" id="Capa_1" xmlns="http://www.w3.org/2000/svg" xmlns:xlink="http://www.w3.org/1999/xlink" x="0px" y="0px"
	 viewBox="0 0 40 40" style="enable-background:new 0 0 40 40;" xml:space="preserve">
<style type="text/css">
	.st0{fill:#00ACEE;stroke:#00ACEE;stroke-miterlimit:10;}
</style>
<path class="st0" d="M13.54878,7.98966c2.2511,2.85484,7.25738,11.07576,4.90595,11.07576S4.20237,13.66523,4.09316,8.53819
	C4.04141,6.10898,5.99937,4.28055,8.3508,4.28055S11.91355,5.91587,13.54878,7.98966z"/>
<path class="st0" d="M7.73216,25.37655c3.09809-1.90247,11.72119-6.04305,11.4467-3.70769
	c-0.27448,2.33536-6.90093,14.65271-12.00567,14.1627c-2.41864-0.23217-4.00602-2.39017-3.73154-4.72552
	S5.48167,26.75853,7.73216,25.37655z"/>
<path class="st0" d="M27.16425,32.51802c-2.40112-2.72987-7.93687-11.36379-5.58883-11.49003s14.61705,5.32087,15.00137,10.43465
	c0.18209,2.42292-1.67488,4.35384-4.02292,4.48008C30.20582,36.06896,28.90845,34.50103,27.16425,32.51802z"/>
<path class="st0" d="M31.99851,13.57463c-2.87648,2.22339-11.01396,7.25589-10.99122,4.90457s5.4063-14.30543,10.53416-14.36506
	c2.4296-0.02825,4.23901,1.9473,4.21627,4.29862S34.08802,11.95954,31.99851,13.57463z"/>
<g>
</g>
<g>
</g>
<g>
</g>
<g>
</g>
<g>
</g>
<g>
</g>
</svg>
