<?xml version="1.0" encoding="utf-8"?>
<!-- Generator: Adobe Illustrator 26.3.0, SVG Export Plug-In . SVG Version: 6.00 Build 0)  -->
<svg version="1.1" id="Capa_1" xmlns="http://www.w3.org/2000/svg" xmlns:xlink="http://www.w3.org/1999/xlink" x="0px" y="0px"
	 viewBox="0 0 500 500" style="enable-background:new 0 0 500 500;" xml:space="preserve">
<style type="text/css">
	.st0{fill:#C5C5C5;stroke:#FFFFFF;stroke-miterlimit:10;}
	.st1{fill:none;stroke:#FCFCFC;stroke-miterlimit:10;}
	.st2{fill:#FFFFFF;stroke:#FCFCFC;stroke-miterlimit:10;}
	.st3{fill:#C5C5C5;}
	.st4{fill:#C5C5C5;stroke:#C5C5C5;stroke-miterlimit:10;}
</style>
<rect x="231.91188" y="120.29861" transform="matrix(0.95062 -0.31035 0.31035 0.95062 -29.597 80.15066)" class="st0" width="10.3525" height="25.58031"/>
<rect x="196.42931" y="189.98471" transform="matrix(0.95062 -0.31035 0.31035 0.95062 -56.5247 73.61709)" class="st0" width="13.32432" height="48.92399"/>
<path class="st0" d="M325.02502,236.15334l-84.19835,31.57439c-8.06783,3.02542-17.06068-1.06223-20.08612-9.13007
	l-31.57439-84.19833c-3.02542-8.06783,1.06224-17.0607,9.13007-20.08612l84.19833-31.57439
	c8.06784-3.02543,17.0607,1.06223,20.08612,9.13007l31.57437,84.19833C337.18051,224.13504,333.09283,233.1279,325.02502,236.15334z
	"/>
<rect x="311.07773" y="145.94211" transform="matrix(0.91822 -0.39608 0.39608 0.91822 -41.56526 139.50728)" class="st0" width="11.91428" height="48.92399"/>
<path class="st1" d="M217.97075,204.40527l4.15941-1.49109c6.55553-2.35008,13.41257-6.31425,18.92392-10.94026l2.21747-1.86125"/>
<path class="st1" d="M264.66061,183.60873l4.25525-0.24168c6.70657-0.38092,13.94208-2.51437,19.96844-5.88785l2.42468-1.3573"/>
<circle class="st2" cx="264.66061" cy="232.64322" r="3.72414"/>
<g>
	<path class="st3" d="M124.99121,219.86426l-4.70215-61.02246l-0.17383-0.21582L95.4873,178.40479l-4.22266-5.25684
		l32.7666-26.31396l3.06543,3.81641l4.72949,60.76172L132,211.62793l27.14941-21.80273l4.22168,5.25684l-35.43066,28.4541
		L124.99121,219.86426z"/>
</g>
<g>
	<path class="st3" d="M162.78369,245.98047l-2.4209-31.4126l-0.08887-0.11133l-12.67871,10.18213l-2.17285-2.70605
		l16.86816-13.54639l1.57715,1.96484l2.43457,31.2793l0.08984,0.11133l13.97559-11.22412l2.17285,2.70605l-18.23828,14.64746
		L162.78369,245.98047z"/>
</g>
<g>
	<path class="st3" d="M185.28369,263.07812l-1.42969-18.53906l-0.05176-0.06543l-7.48242,6.00928l-1.2832-1.59766l9.9541-7.99512
		l0.93164,1.16016l1.4375,18.46045l0.05273,0.06543l8.24805-6.62402l1.2832,1.59766l-10.76465,8.64453L185.28369,263.07812z"/>
</g>
<polygon class="st0" points="288.81107,285.63898 271.36148,288.01077 273.6528,255.41792 297.35428,246.52986 "/>
<path class="st0" d="M262.66061,420.2984l-83.42964,25.66c-5.34081,1.64264-10.74734-2.35098-10.74734-7.93866v-0.00003
	c0-3.64658,2.37857-6.86667,5.86403-7.93869l88.31296-27.16193V420.2984z"/>
<path class="st0" d="M320.4649,420.03955l-58.51205,64.77103c-3.74567,4.14636-10.43471,3.48557-13.29671-1.31351l-0.00002-0.00003
	c-1.86777-3.13193-1.47421-7.11584,0.97026-9.82181l61.93687-68.56219L320.4649,420.03955z"/>
<path class="st0" d="M247.56741,303.98132l-7.66693,67.43982c-0.4908,4.3172-5.94925,5.97125-10.85052,3.28799h-0.00002
	c-3.19864-1.7511-5.16287-4.8688-4.84256-7.68628l8.11569-71.38721L247.56741,303.98132z"/>
<path class="st0" d="M238.40149,372.88086l-20.21584,53.96307c-1.29413,3.45447-6.38872,3.05023-10.12721-0.80356h-0.00002
	c-2.43979-2.51501-3.52841-5.76981-2.68384-8.02423l21.39911-57.12164L238.40149,372.88086z"/>
<polygon class="st0" points="319.733,422.1492 251.25752,422.1492 228.14679,293.88461 341.80194,278.43634 "/>
<path class="st0" d="M325.57422,285.59753l-1.05219,67.01657c-0.06735,4.2901,4.79013,6.30225,9.65588,3.99982h0.00003
	c3.17545-1.50259,5.37244-4.43863,5.41641-7.2384l1.11377-70.93918L325.57422,285.59753z"/>
<path class="st0" d="M325.75494,350.29276l-39.71185,64.71512c-2.54218,4.14279-0.33807,9.32806,4.38141,10.30756l0,0
	c3.07999,0.63919,6.31403-0.76959,7.97308-3.47321l42.03625-68.50305L325.75494,350.29276z"/>
<g>
</g>
<g>
	<path class="st4" d="M32.41162,30.96387h-7.86426v-2.83838h19.14209v2.83838h-7.90234v23.0166h-3.37549V30.96387z"/>
	<path class="st4" d="M49.90674,28.12549v10.81787h12.50537V28.12549h3.37598v25.85498h-3.37598V41.8584H49.90674v12.12207h-3.3374
		V28.12549H49.90674z"/>
	<path class="st4" d="M84.97217,41.8584H74.92188v9.32178h11.20117v2.80029H71.58447V28.12549h13.96338v2.80029H74.92188v8.1709
		h10.05029V41.8584z"/>
	<path class="st4" d="M102.7749,45.84814l-2.68506,8.13232h-3.45264l8.78467-25.85498h4.02783l8.82275,25.85498h-3.56738
		l-2.76172-8.13232H102.7749z M111.25244,43.23926l-2.53174-7.44189c-0.5752-1.6875-0.95898-3.22217-1.34229-4.71826h-0.07715
		c-0.3833,1.53467-0.80518,3.10742-1.3042,4.68018l-2.53174,7.47998H111.25244z"/>
	<path class="st4" d="M125.41162,28.12549v25.85498h-3.3374V28.12549H125.41162z"/>
	<path class="st4" d="M142.71436,28.12549v25.85498h-3.3374V28.12549H142.71436z"/>
	<path class="st4" d="M148.08594,49.91406c1.49609,0.9209,3.68262,1.68799,5.98438,1.68799
		c3.41406,0,5.40869-1.80273,5.40869-4.41162c0-2.4165-1.38086-3.79736-4.87158-5.14014
		c-4.21973-1.49609-6.82812-3.68262-6.82812-7.32666c0-4.02783,3.33691-7.02002,8.3623-7.02002
		c2.64697,0,4.56494,0.61377,5.71582,1.26562l-0.9209,2.72363c-0.84375-0.46045-2.56982-1.22754-4.91016-1.22754
		c-3.52881,0-4.87158,2.10986-4.87158,3.87451c0,2.4165,1.57275,3.60596,5.14014,4.98682
		c4.37305,1.68799,6.59814,3.79785,6.59814,7.59521c0,3.98975-2.95361,7.44238-9.05322,7.44238
		c-2.49316,0-5.2168-0.729-6.59766-1.6499L148.08594,49.91406z"/>
	<path class="st4" d="M175.13428,49.91406c1.49609,0.9209,3.68262,1.68799,5.98438,1.68799
		c3.41406,0,5.40869-1.80273,5.40869-4.41162c0-2.4165-1.38086-3.79736-4.87158-5.14014
		c-4.21973-1.49609-6.82861-3.68262-6.82861-7.32666c0-4.02783,3.3374-7.02002,8.36279-7.02002
		c2.64697,0,4.56494,0.61377,5.71582,1.26562l-0.9209,2.72363c-0.84375-0.46045-2.56982-1.22754-4.91016-1.22754
		c-3.52881,0-4.87158,2.10986-4.87158,3.87451c0,2.4165,1.57275,3.60596,5.14014,4.98682
		c4.37354,1.68799,6.59814,3.79785,6.59814,7.59521c0,3.98975-2.95361,7.44238-9.05322,7.44238
		c-2.49316,0-5.2168-0.729-6.59766-1.6499L175.13428,49.91406z"/>
	<path class="st4" d="M194.50928,28.12549h3.3374v23.05469h11.04785v2.80029h-14.38525V28.12549z"/>
	<path class="st4" d="M226.00537,41.8584h-10.05029v9.32178h11.20117v2.80029h-14.53857V28.12549h13.96338v2.80029h-10.62598v8.1709
		h10.05029V41.8584z"/>
	<path class="st4" d="M244.88135,41.8584h-10.05029v9.32178h11.20117v2.80029h-14.53857V28.12549h13.96338v2.80029h-10.62598v8.1709
		h10.05029V41.8584z"/>
	<path class="st4" d="M250.36963,28.43213c1.61084-0.26855,3.72119-0.49854,6.40576-0.49854c3.2998,0,5.71582,0.76709,7.25,2.14844
		c1.41992,1.22754,2.26367,3.10693,2.26367,5.40869c0,2.33984-0.69043,4.18115-1.99512,5.52393
		c-1.76367,1.87939-4.6416,2.83887-7.90137,2.83887c-0.99805,0-1.91895-0.03857-2.68555-0.23047v10.35742h-3.3374V28.43213z
		 M253.70703,40.89941c0.72852,0.19189,1.64941,0.26855,2.76172,0.26855c4.02832,0,6.4834-1.95654,6.4834-5.52393
		c0-3.41406-2.41699-5.06348-6.09961-5.06348c-1.45801,0-2.57031,0.11523-3.14551,0.26855V40.89941z"/>
	<path class="st4" d="M274.11816,28.12549v25.85498h-3.33789V28.12549H274.11816z"/>
	<path class="st4" d="M279.94922,53.98047V28.12549h3.64453l8.28613,13.08105c1.91797,3.03027,3.41406,5.75391,4.6416,8.40088
		l0.07617-0.03857c-0.30664-3.45215-0.38281-6.59766-0.38281-10.62549V28.12549h3.14551v25.85498h-3.37598l-8.20898-13.11914
		c-1.80273-2.87744-3.5293-5.83105-4.83398-8.63135l-0.11523,0.03857c0.19238,3.26025,0.26855,6.36768,0.26855,10.66406v11.04785
		H279.94922z"/>
	<path class="st4" d="M324.87402,52.82959c-1.49609,0.53711-4.4502,1.41943-7.94141,1.41943
		c-3.91211,0-7.13477-0.99756-9.66602-3.41406c-2.22559-2.14844-3.60645-5.60059-3.60645-9.62842
		c0.03809-7.71045,5.33203-13.34961,14.00195-13.34961c2.99219,0,5.33203,0.65186,6.44434,1.18896l-0.80566,2.72363
		c-1.38086-0.61377-3.10742-1.1123-5.71582-1.1123c-6.29102,0-10.39551,3.9126-10.39551,10.39551
		c0,6.56006,3.95117,10.43408,9.97363,10.43408c2.18652,0,3.68262-0.30664,4.4502-0.69043v-7.71045h-5.25586v-2.68506h8.5166
		V52.82959z"/>
	<path class="st4" d="M329.05957,51.98584c0-1.41943,0.95898-2.41699,2.30176-2.41699c1.3418,0,2.2627,0.99756,2.2627,2.41699
		c0,1.38086-0.88184,2.4165-2.30176,2.4165C329.97949,54.40234,329.05957,53.3667,329.05957,51.98584z"/>
	<path class="st4" d="M27.50146,100.02051V74.16553h3.64404l8.28613,13.08105c1.91797,3.03027,3.41406,5.75391,4.6416,8.40088
		l0.07666-0.03857c-0.30713-3.45215-0.38379-6.59766-0.38379-10.62549V74.16553h3.14551v25.85498h-3.37549l-8.20898-13.11914
		c-1.80322-2.87744-3.5293-5.83105-4.8335-8.63135l-0.11523,0.03857c0.19189,3.26025,0.26855,6.36768,0.26855,10.66406v11.04785
		H27.50146z"/>
	<path class="st4" d="M74.84229,86.82422c0,8.8999-5.40918,13.61816-12.00684,13.61816
		c-6.82812,0-11.62354-5.29346-11.62354-13.11914c0-8.20947,5.10205-13.57959,12.00684-13.57959
		C70.27734,73.74365,74.84229,79.15234,74.84229,86.82422z M54.77979,87.24658c0,5.52393,2.9917,10.47217,8.24756,10.47217
		c5.29346,0,8.28564-4.87158,8.28564-10.74072c0-5.14062-2.68506-10.51074-8.24756-10.51074
		C57.5415,76.46729,54.77979,81.56885,54.77979,87.24658z"/>
	<path class="st4" d="M106.99268,98.86963c-1.49609,0.53711-4.44971,1.41943-7.94043,1.41943
		c-3.9126,0-7.13525-0.99756-9.66699-3.41406c-2.2251-2.14844-3.60596-5.60059-3.60596-9.62842
		c0.03857-7.71045,5.33203-13.34961,14.00195-13.34961c2.9917,0,5.33203,0.65186,6.44434,1.18896l-0.80566,2.72363
		c-1.38086-0.61377-3.10693-1.1123-5.71582-1.1123c-6.29102,0-10.39551,3.9126-10.39551,10.39551
		c0,6.56006,3.95117,10.43408,9.97363,10.43408c2.18652,0,3.68262-0.30664,4.4502-0.69043v-7.71045h-5.25586v-2.68506h8.51611
		V98.86963z"/>
	<path class="st4" d="M125.48682,87.89844h-10.05029v9.32178h11.20117v2.80029h-14.53857V74.16553h13.96338v2.80029h-10.62598
		v8.1709h10.05029V87.89844z"/>
	<path class="st4" d="M130.9751,100.02051V74.16553h3.64404l8.28613,13.08105c1.91797,3.03027,3.41406,5.75391,4.6416,8.40088
		l0.07666-0.03857c-0.30713-3.45215-0.38379-6.59766-0.38379-10.62549V74.16553h3.14551v25.85498h-3.37549l-8.20898-13.11914
		c-1.80322-2.87744-3.5293-5.83105-4.8335-8.63135l-0.11523,0.03857c0.19189,3.26025,0.26855,6.36768,0.26855,10.66406v11.04785
		H130.9751z"/>
	<path class="st4" d="M169.60742,87.89844h-10.05029v9.32178h11.20117v2.80029h-14.53857V74.16553h13.96289v2.80029h-10.62549
		v8.1709h10.05029V87.89844z"/>
	<path class="st4" d="M175.0957,74.51074c1.6875-0.34521,4.10449-0.53711,6.40625-0.53711
		c3.56738,0,5.86914,0.65234,7.47998,2.10986c1.3042,1.15088,2.0332,2.91553,2.0332,4.91016
		c0,3.41406-2.14795,5.67725-4.87158,6.59814v0.11475c1.99463,0.69092,3.18359,2.53223,3.79736,5.21729
		c0.84424,3.60596,1.45801,6.09912,1.99512,7.09668h-3.45264c-0.42188-0.729-0.99756-2.95361-1.72607-6.17627
		c-0.76709-3.56738-2.14844-4.91016-5.17871-5.0249h-3.14551v11.20117h-3.3374V74.51074z M178.43311,86.2876h3.41406
		c3.56738,0,5.83057-1.95654,5.83057-4.91016c0-3.3374-2.4165-4.79541-5.9458-4.8335c-1.61133,0-2.76172,0.15332-3.29883,0.30664
		V86.2876z"/>
	<path class="st4" d="M200.10938,91.88818l-2.68506,8.13232h-3.45264l8.78467-25.85498h4.02783l8.82275,25.85498h-3.56738
		l-2.76221-8.13232H200.10938z M208.58691,89.2793l-2.53174-7.44189c-0.5752-1.6875-0.95898-3.22217-1.34229-4.71826h-0.07715
		c-0.3833,1.53467-0.80518,3.10742-1.3042,4.68018l-2.53174,7.47998H208.58691z"/>
	<path class="st4" d="M221.36475,77.00391h-7.86426v-2.83838h19.14209v2.83838h-7.90234v23.0166h-3.37549V77.00391z"/>
	<path class="st4" d="M248.91016,87.89844h-10.05029v9.32178h11.20117v2.80029h-14.53857V74.16553h13.96289v2.80029h-10.62549
		v8.1709h10.05029V87.89844z"/>
	<path class="st4" d="M254.39844,74.51074c2.0332-0.30713,4.4502-0.53711,7.09668-0.53711c4.7959,0,8.20996,1.1123,10.47266,3.22217
		c2.30176,2.10986,3.64453,5.10205,3.64453,9.2832c0,4.21973-1.30469,7.67236-3.7207,10.05078
		c-2.41699,2.4165-6.40625,3.7207-11.43164,3.7207c-2.37891,0-4.37305-0.11475-6.06152-0.30664V74.51074z M257.73633,97.37354
		c0.84375,0.15332,2.07129,0.19189,3.37598,0.19189c7.13477,0,11.00879-3.98926,11.00879-10.97119
		c0.03906-6.09912-3.41406-9.97363-10.47168-9.97363c-1.72656,0-3.03125,0.15332-3.91309,0.34521V97.37354z"/>
	<path class="st4" d="M291.4209,77.00391h-7.86328v-2.83838h19.1416v2.83838h-7.90234v23.0166h-3.37598V77.00391z"/>
	<path class="st4" d="M311.33301,100.02051l-6.55957-25.85498h3.5293l3.06934,13.08105
		c0.7666,3.22217,1.45703,6.44434,1.91797,8.93799h0.07617c0.42188-2.57031,1.22754-5.63916,2.11035-8.97656l3.45215-13.04248
		h3.49121l3.14551,13.11914c0.72852,3.06885,1.41895,6.1377,1.80273,8.86133h0.07617
		c0.53711-2.83838,1.2666-5.71582,2.07227-8.93799l3.41406-13.04248h3.41406l-7.32715,25.85498h-3.49121l-3.26074-13.46436
		c-0.80469-3.29932-1.3418-5.83105-1.6875-8.43945h-0.07617c-0.46094,2.56982-1.03613,5.10205-1.99512,8.43945l-3.68262,13.46436
		H311.33301z"/>
	<path class="st4" d="M352.95996,87.89844h-10.05078v9.32178h11.20117v2.80029h-14.53906V74.16553h13.96387v2.80029h-10.62598
		v8.1709h10.05078V87.89844z"/>
	<path class="st4" d="M371.83594,87.89844h-10.05078v9.32178h11.20117v2.80029h-14.53906V74.16553h13.96387v2.80029h-10.62598
		v8.1709h10.05078V87.89844z"/>
	<path class="st4" d="M382.84668,77.00391h-7.86328v-2.83838h19.1416v2.83838h-7.90234v23.0166h-3.37598V77.00391z"/>
	<path class="st4" d="M396.31445,95.9541c1.49609,0.9209,3.68262,1.68799,5.98438,1.68799
		c3.41406,0,5.40918-1.80273,5.40918-4.41162c0-2.4165-1.38184-3.79736-4.87207-5.14014
		c-4.21973-1.49609-6.82812-3.68262-6.82812-7.32666c0-4.02783,3.33691-7.02002,8.3623-7.02002
		c2.64648,0,4.56543,0.61377,5.71582,1.26562l-0.9209,2.72363c-0.84375-0.46045-2.57031-1.22754-4.91016-1.22754
		c-3.5293,0-4.87207,2.10986-4.87207,3.87451c0,2.4165,1.57324,3.60596,5.14062,4.98682
		c4.37305,1.68799,6.59863,3.79785,6.59863,7.59521c0,3.98975-2.9541,7.44238-9.05371,7.44238
		c-2.49316,0-5.2168-0.729-6.59766-1.6499L396.31445,95.9541z"/>
	<path class="st4" d="M427.8125,100.02051V89.04932l-8.1709-14.88379h3.79785l3.64355,7.13525
		c0.99805,1.95605,1.76465,3.52881,2.57031,5.33203h0.07715c0.72852-1.68799,1.61035-3.37598,2.6084-5.33203l3.7207-7.13525h3.79785
		l-8.66992,14.8457v11.00928H427.8125z"/>
	<path class="st4" d="M455.93457,87.89844h-10.05078v9.32178h11.20117v2.80029H442.5459V74.16553h13.96387v2.80029h-10.62598v8.1709
		h10.05078V87.89844z"/>
	<path class="st4" d="M466.94531,77.00391h-7.86328v-2.83838h19.1416v2.83838h-7.90234v23.0166h-3.37598V77.00391z"/>
	<path class="st4" d="M477.88086,98.02588c0-1.41943,0.95898-2.41699,2.30078-2.41699c1.34277,0,2.26367,0.99756,2.26367,2.41699
		c0,1.38086-0.88184,2.4165-2.30176,2.4165C478.80078,100.44238,477.88086,99.40674,477.88086,98.02588z"/>
</g>
<g>
</g>
<g>
</g>
<g>
</g>
<g>
</g>
<g>
</g>
<g>
</g>
</svg>
