<?xml version="1.0" standalone="no"?>
<!DOCTYPE svg PUBLIC "-//W3C//DTD SVG 20010904//EN"
 "http://www.w3.org/TR/2001/REC-SVG-20010904/DTD/svg10.dtd">
<svg version="1.0" xmlns="http://www.w3.org/2000/svg"
 width="920.000000pt" height="920.000000pt" viewBox="0 0 920.000000 920.000000"
 preserveAspectRatio="xMidYMid meet">

<g transform="translate(0.000000,920.000000) scale(0.100000,-0.100000)"
fill="#000000" stroke="none">
<path d="M4340 9133 c-129 -4 -409 -31 -553 -53 -706 -107 -1351 -356 -1937
-746 -843 -560 -1446 -1390 -1675 -2304 -75 -300 -106 -550 -107 -865 -2 -548
109 -1018 362 -1530 186 -377 424 -711 736 -1035 129 -133 127 -128 99 -262
-36 -170 -94 -299 -199 -438 -87 -117 -224 -245 -466 -440 -398 -321 -543
-504 -586 -740 -27 -152 -13 -246 51 -335 70 -100 159 -139 425 -187 112 -20
157 -23 420 -23 258 0 314 3 445 23 579 89 1173 300 1705 605 135 77 421 265
559 367 l108 79 124 -19 c278 -43 418 -53 699 -53 951 1 1852 265 2625 771
863 565 1462 1372 1705 2296 54 208 94 452 105 641 3 55 8 137 10 181 6 105
-11 412 -30 556 -121 889 -566 1708 -1269 2335 -832 743 -1914 1155 -3081
1175 -104 2 -228 2 -275 1z m575 -714 c571 -47 1152 -224 1650 -502 129 -72
352 -220 485 -323 142 -109 458 -422 570 -564 700 -887 867 -1979 455 -2991
-344 -844 -1119 -1560 -2065 -1906 -485 -178 -935 -255 -1485 -257 -312 0
-471 11 -716 49 -132 21 -165 23 -215 14 -77 -14 -99 -26 -229 -128 -533 -414
-1249 -749 -1835 -860 -168 -31 -523 -69 -505 -53 6 5 55 45 111 90 252 202
429 386 565 590 196 292 297 609 300 934 2 170 -14 205 -150 333 -152 143
-242 236 -341 351 -706 821 -925 1877 -595 2869 116 349 293 673 530 970 106
133 403 430 540 539 800 636 1840 936 2930 845z"/>
</g>
</svg>
