<?xml version="1.0" standalone="no"?>
<!DOCTYPE svg PUBLIC "-//W3C//DTD SVG 20010904//EN"
 "http://www.w3.org/TR/2001/REC-SVG-20010904/DTD/svg10.dtd">
<svg version="1.0" xmlns="http://www.w3.org/2000/svg"
 width="512.000000pt" height="512.000000pt" viewBox="0 0 512.000000 512.000000"
 preserveAspectRatio="xMidYMid meet">

<g transform="translate(0.000000,512.000000) scale(0.100000,-0.100000)"
fill="#000000" stroke="none">
<path d="M397 3812 l-397 -397 142 -143 143 -142 157 157 158 158 0 -995 c0
-1104 -1 -1071 66 -1210 54 -110 164 -217 275 -269 46 -22 111 -44 143 -50 41
-8 470 -11 1365 -11 l1306 0 -200 200 -200 200 -1101 0 -1101 0 -44 23 c-24
13 -57 43 -74 66 l-30 43 -3 1001 -2 1002 160 -160 160 -160 140 140 c77 77
140 142 140 145 0 4 -181 184 -403 402 l-404 396 -396 -396z"/>
<path d="M1565 4010 l200 -200 1085 0 c673 0 1098 -4 1119 -10 56 -16 100 -52
126 -104 l25 -50 0 -985 0 -986 -158 158 -157 157 -143 -143 -142 -142 400
-400 400 -400 400 400 400 400 -140 140 -140 140 -160 -160 -160 -160 0 1000
c0 1109 1 1079 -66 1212 -71 141 -196 249 -349 301 l-80 27 -1330 3 -1330 2
200 -200z"/>
</g>
</svg>
